<svg id="Capa_1" enable-background="new 0 0 512 512" height="512" viewBox="0 0 512 512" width="512" xmlns="http://www.w3.org/2000/svg"><g><g><g><path d="m412.239 106.9h-69.507c-2.9 0-5.362-2.08-5.897-4.93-10.154-54.172-57.966-95.07-115.224-94.464-63.744.675-114.711 53.37-114.711 117.118v9.409c0 3.314-2.686 6-6 6h-17.914c-41.107 0-75.179 32.879-75.484 73.984-.307 41.432 33.187 75.115 74.548 75.115h331.333c50.552 0 91.49-41.168 91.114-91.807-.372-50.24-42.016-90.425-92.258-90.425z" fill="#c8effe"/></g><g><g><path d="m412.239 106.9h-23c50.241 0 91.885 40.186 92.258 90.426.375 50.639-40.562 91.808-91.114 91.808h23c50.552 0 91.49-41.168 91.114-91.808-.372-50.241-42.016-90.426-92.258-90.426z" fill="#99e2fc"/></g><g><path d="m313.836 101.969c.534 2.851 2.996 4.931 5.897 4.931h23c-2.9 0-5.362-2.08-5.897-4.931-10.155-54.171-57.967-95.069-115.225-94.463-3.438.036-6.835.233-10.192.566 51.461 5.09 93.029 43.82 102.417 93.897z" fill="#99e2fc"/></g></g><g><ellipse cx="256" cy="347.116" fill="#c8effe" rx="24.85" ry="24.85" transform="matrix(.707 -.707 .707 .707 -170.468 282.687)"/></g><g><ellipse cx="338.833" cy="429.949" fill="#c8effe" rx="24.85" ry="24.85" transform="matrix(.707 -.707 .707 .707 -204.778 365.52)"/></g><g><ellipse cx="173.166" cy="429.949" fill="#c8effe" rx="24.85" ry="24.85" transform="matrix(.23 -.973 .973 .23 -285.067 499.701)"/></g><g><ellipse cx="421.666" cy="347.116" fill="#c8effe" rx="24.85" ry="24.85" transform="matrix(.16 -.987 .987 .16 11.489 707.736)"/></g><g><ellipse cx="90.333" cy="347.116" fill="#c8effe" rx="24.85" ry="24.85" transform="matrix(.23 -.973 .973 .23 -268.252 355.282)"/></g><g><path d="m90.333 322.266c-4.314 0-8.371 1.101-11.907 3.035 7.712 4.218 12.943 12.405 12.943 21.815s-5.231 17.597-12.943 21.815c3.536 1.934 7.593 3.035 11.907 3.035 13.724 0 24.85-11.126 24.85-24.85s-11.126-24.85-24.85-24.85z" fill="#99e2fc"/></g><g><path d="m256 322.266c-4.314 0-8.371 1.101-11.907 3.035 7.712 4.218 12.943 12.405 12.943 21.815s-5.231 17.597-12.943 21.815c3.536 1.934 7.593 3.035 11.907 3.035 13.724 0 24.85-11.126 24.85-24.85s-11.126-24.85-24.85-24.85z" fill="#99e2fc"/></g><g><path d="m421.667 322.266c-4.314 0-8.371 1.101-11.907 3.035 7.712 4.218 12.943 12.405 12.943 21.815s-5.231 17.597-12.943 21.815c3.536 1.934 7.593 3.035 11.907 3.035 13.724 0 24.85-11.126 24.85-24.85s-11.126-24.85-24.85-24.85z" fill="#99e2fc"/></g><g><path d="m338.833 405.099c-4.315 0-8.371 1.101-11.907 3.035 7.712 4.218 12.943 12.405 12.943 21.815s-5.231 17.597-12.943 21.815c3.536 1.934 7.593 3.035 11.907 3.035 13.724 0 24.85-11.126 24.85-24.85s-11.126-24.85-24.85-24.85z" fill="#99e2fc"/></g><g><path d="m173.167 405.099c-4.314 0-8.371 1.101-11.907 3.035 7.712 4.218 12.943 12.405 12.943 21.815s-5.231 17.597-12.943 21.815c3.536 1.934 7.593 3.035 11.907 3.035 13.724 0 24.85-11.126 24.85-24.85s-11.126-24.85-24.85-24.85z" fill="#99e2fc"/></g></g><g><path d="m413.383 99.399h-69.405c-5.271-26.62-19.277-50.899-39.89-68.92-22.482-19.655-51.326-30.479-81.222-30.479-68.079 0-123.466 55.387-123.466 123.466v9.067h-17.35c-45.242 0-82.05 36.808-82.05 82.05s36.808 82.05 82.05 82.05h29.551c4.143 0 7.5-3.357 7.5-7.5s-3.357-7.5-7.5-7.5h-29.551c-36.972 0-67.05-30.078-67.05-67.05s30.078-67.05 67.05-67.05h74.55c4.143 0 7.5-3.357 7.5-7.5s-3.357-7.5-7.5-7.5h-42.2v-9.067c0-59.809 48.658-108.466 108.466-108.466 53.348 0 99.297 39.558 107.233 92.148.807 5.324 1.233 10.771 1.233 16.317 0 10.555-1.511 20.983-4.491 30.995-1.182 3.97 1.079 8.146 5.049 9.328.714.212 1.435.313 2.143.313 3.232 0 6.216-2.106 7.186-5.362 3.394-11.401 5.114-23.27 5.114-35.274 0-3.05-.125-6.071-.343-9.066h67.393c46.106 0 83.617 37.511 83.617 83.617s-37.511 83.616-83.617 83.616h-271.783c-4.143 0-7.5 3.357-7.5 7.5s3.357 7.5 7.5 7.5h271.783c54.378 0 98.617-44.239 98.617-98.616s-44.239-98.617-98.617-98.617z"/><path d="m90.333 379.466c-17.838 0-32.35-14.512-32.35-32.35s14.512-32.35 32.35-32.35 32.35 14.512 32.35 32.35-14.512 32.35-32.35 32.35zm0-49.699c-9.566 0-17.35 7.783-17.35 17.35s7.783 17.35 17.35 17.35 17.35-7.783 17.35-17.35-7.784-17.35-17.35-17.35z"/><path d="m256 379.466c-17.838 0-32.35-14.512-32.35-32.35s14.512-32.35 32.35-32.35 32.35 14.512 32.35 32.35-14.512 32.35-32.35 32.35zm0-49.699c-9.566 0-17.35 7.783-17.35 17.35s7.783 17.35 17.35 17.35 17.35-7.783 17.35-17.35-7.784-17.35-17.35-17.35z"/><path d="m338.833 462.299c-17.838 0-32.35-14.512-32.35-32.35s14.512-32.35 32.35-32.35 32.35 14.512 32.35 32.35-14.512 32.35-32.35 32.35zm0-49.699c-9.566 0-17.35 7.783-17.35 17.35s7.783 17.35 17.35 17.35 17.35-7.783 17.35-17.35-7.784-17.35-17.35-17.35z"/><path d="m173.166 462.299c-17.838 0-32.35-14.512-32.35-32.35s14.512-32.35 32.35-32.35 32.351 14.512 32.351 32.35-14.513 32.35-32.351 32.35zm0-49.699c-9.566 0-17.35 7.783-17.35 17.35s7.783 17.35 17.35 17.35 17.351-7.783 17.351-17.35-7.784-17.35-17.351-17.35z"/><path d="m421.666 379.466c-17.838 0-32.35-14.512-32.35-32.35s14.512-32.35 32.35-32.35 32.351 14.512 32.351 32.35-14.513 32.35-32.351 32.35zm0-49.699c-9.566 0-17.35 7.783-17.35 17.35s7.783 17.35 17.35 17.35 17.351-7.783 17.351-17.35-7.784-17.35-17.351-17.35z"/></g></g></svg>