<svg id="Capa_1" enable-background="new 0 0 512 512" height="512" viewBox="0 0 512 512" width="512" xmlns="http://www.w3.org/2000/svg"><g><g><g><path d="m239.433 57.2c0 9.15 7.417 16.567 16.567 16.567 9.149 0 16.567-7.417 16.567-16.567v-33.133c0-9.15-7.417-16.567-16.567-16.567s-16.567 7.417-16.567 16.567z" fill="#ffd900"/></g><g><path d="m239.433 487.933c0 9.15 7.417 16.567 16.567 16.567 9.149 0 16.567-7.417 16.567-16.567v-33.133c0-9.149-7.417-16.567-16.567-16.567s-16.567 7.417-16.567 16.567z" fill="#ffd900"/></g><g><path d="m454.8 239.433c-9.149 0-16.567 7.417-16.567 16.567s7.417 16.567 16.567 16.567h33.133c9.15 0 16.567-7.417 16.567-16.567s-7.417-16.567-16.567-16.567z" fill="#ffd900"/></g><g><path d="m24.067 239.433c-9.15 0-16.567 7.417-16.567 16.567s7.417 16.567 16.567 16.567h33.133c9.149 0 16.567-7.417 16.567-16.567s-7.417-16.567-16.567-16.567z" fill="#ffd900"/></g><g><circle cx="256" cy="256" fill="#ffd900" r="149.1"/></g><g><path d="m384.858 103.713c-6.47 6.47-6.47 16.959 0 23.429s16.959 6.47 23.429 0l23.429-23.429c6.47-6.47 6.47-16.959 0-23.429s-16.959-6.47-23.429 0z" fill="#ffd900"/></g><g><path d="m80.284 408.287c-6.47 6.47-6.47 16.959 0 23.429s16.959 6.47 23.429 0l23.429-23.429c6.47-6.47 6.47-16.959 0-23.429s-16.959-6.47-23.429 0z" fill="#ffd900"/></g><g><path d="m408.287 384.858c-6.47-6.47-16.959-6.47-23.429 0s-6.47 16.959 0 23.429l23.429 23.429c6.47 6.47 16.959 6.47 23.429 0s6.47-16.959 0-23.429z" fill="#ffd900"/></g><g><path d="m103.713 80.284c-6.47-6.47-16.959-6.47-23.429 0s-6.47 16.959 0 23.429l23.429 23.429c6.47 6.47 16.959 6.47 23.429 0s6.47-16.959 0-23.429z" fill="#ffd900"/></g><g><path d="m256 106.9c-3.87 0-7.705.148-11.5.437 76.972 5.871 137.6 70.187 137.6 148.663s-60.628 142.792-137.6 148.663c3.795.289 7.63.438 11.5.438 82.346 0 149.1-66.754 149.1-149.1s-66.754-149.101-149.1-149.101z" fill="#fb0"/></g><g><path d="m57.2 239.433h-23c9.149 0 16.567 7.417 16.567 16.567 0 9.149-7.417 16.567-16.567 16.567h23c9.149 0 16.567-7.417 16.567-16.567 0-9.149-7.418-16.567-16.567-16.567z" fill="#fb0"/></g><g><path d="m487.933 239.433h-23c9.15 0 16.567 7.417 16.567 16.567 0 9.149-7.417 16.567-16.567 16.567h23c9.15 0 16.567-7.417 16.567-16.567 0-9.149-7.417-16.567-16.567-16.567z" fill="#fb0"/></g><g><path d="m256 7.5c-4.471 0-8.52 1.779-11.5 4.657 3.119 3.013 5.067 7.23 5.067 11.91v33.133c0 4.679-1.948 8.897-5.067 11.909 2.98 2.878 7.029 4.657 11.5 4.657 9.149 0 16.567-7.417 16.567-16.567v-33.132c0-9.15-7.418-16.567-16.567-16.567z" fill="#fb0"/></g><g><path d="m256 438.233c-4.471 0-8.52 1.779-11.5 4.657 3.119 3.013 5.067 7.23 5.067 11.909v33.133c0 4.679-1.948 8.897-5.067 11.909 2.98 2.878 7.029 4.657 11.5 4.657 9.149 0 16.567-7.417 16.567-16.567v-33.131c0-9.15-7.418-16.567-16.567-16.567z" fill="#fb0"/></g><g><path d="m431.716 80.284c-6.401-6.401-16.73-6.458-23.214-.194.07.068.145.125.214.194 6.47 6.47 6.47 16.959 0 23.429l-23.429 23.429c-.069.069-.145.126-.214.194 6.485 6.264 16.814 6.207 23.214-.194l23.429-23.429c6.47-6.47 6.47-16.959 0-23.429z" fill="#fb0"/></g><g><path d="m431.716 408.287-23.429-23.429c-6.401-6.401-16.73-6.458-23.214-.194.07.067.145.125.214.194l23.429 23.429c6.47 6.47 6.47 16.959 0 23.429-.069.069-.145.126-.214.194 6.484 6.265 16.813 6.207 23.214-.194 6.47-6.47 6.47-16.959 0-23.429z" fill="#fb0"/></g><g><path d="m127.142 103.713-23.429-23.429c-6.393-6.393-16.703-6.457-23.189-.216.078.075.163.139.239.216l23.429 23.429c6.47 6.47 6.47 16.959 0 23.429-.077.077-.161.141-.239.216 6.486 6.241 16.797 6.176 23.189-.216 6.469-6.47 6.469-16.96 0-23.429z" fill="#fb0"/></g><g><path d="m127.142 384.858c-6.393-6.393-16.703-6.457-23.189-.216.078.075.162.139.239.216 6.47 6.47 6.47 16.959 0 23.429l-23.429 23.429c-.077.077-.161.141-.239.216 6.486 6.241 16.797 6.176 23.189-.216l23.429-23.429c6.469-6.47 6.469-16.959 0-23.429z" fill="#fb0"/></g></g><g><path d="m256 81.267c13.27 0 24.066-10.796 24.066-24.066v-33.135c0-13.27-10.796-24.066-24.066-24.066-13.271 0-24.067 10.796-24.067 24.066v33.134c0 13.271 10.796 24.067 24.067 24.067zm-9.067-57.201c0-4.999 4.067-9.066 9.067-9.066 4.999 0 9.066 4.067 9.066 9.066v33.134c0 4.999-4.067 9.066-9.066 9.066-5 0-9.067-4.067-9.067-9.066z"/><path d="m256 430.733c-13.271 0-24.067 10.796-24.067 24.066v33.134c0 13.271 10.796 24.067 24.067 24.067 13.27 0 24.066-10.796 24.066-24.066v-33.134c0-13.271-10.796-24.067-24.066-24.067zm9.066 57.201c0 4.999-4.067 9.066-9.066 9.066-5 0-9.067-4.067-9.067-9.066v-33.134c0-4.999 4.067-9.066 9.067-9.066 4.999 0 9.066 4.067 9.066 9.066z"/><path d="m487.934 231.934h-33.134c-13.271 0-24.066 10.796-24.066 24.066 0 13.271 10.796 24.066 24.066 24.066h33.134c13.27 0 24.066-10.795 24.066-24.066 0-13.27-10.796-24.066-24.066-24.066zm0 33.132h-33.134c-4.999 0-9.066-4.067-9.066-9.066s4.067-9.066 9.066-9.066h33.134c4.999 0 9.066 4.067 9.066 9.066s-4.067 9.066-9.066 9.066z"/><path d="m81.267 256c0-13.27-10.796-24.066-24.066-24.066h-33.134c-13.271 0-24.067 10.796-24.067 24.066 0 13.271 10.796 24.066 24.067 24.066h33.133c13.27 0 24.067-10.795 24.067-24.066zm-66.267 0c0-4.999 4.067-9.066 9.067-9.066h33.133c4.999 0 9.066 4.067 9.066 9.066s-4.067 9.066-9.066 9.066h-33.133c-5 0-9.067-4.067-9.067-9.066z"/><path d="m256 99.4c-36.294 0-71.672 12.7-99.615 35.763-3.195 2.637-3.647 7.363-1.01 10.558 2.636 3.196 7.364 3.646 10.558 1.011 25.262-20.849 57.249-32.332 90.067-32.332 78.078 0 141.6 63.522 141.6 141.6s-63.522 141.6-141.6 141.6c-78.079 0-141.6-63.522-141.6-141.6 0-32.389 11.215-64.049 31.58-89.148 2.61-3.217 2.118-7.939-1.099-10.55-3.218-2.61-7.94-2.118-10.55 1.099-22.526 27.764-34.931 62.78-34.931 98.599 0 86.35 70.25 156.6 156.6 156.6s156.6-70.25 156.6-156.6-70.25-156.6-156.6-156.6z"/><path d="m396.573 139.482c6.162 0 12.325-2.346 17.018-7.037l23.429-23.429c9.383-9.384 9.383-24.652 0-34.036-9.384-9.383-24.65-9.383-34.036 0l-23.429 23.429c-9.383 9.384-9.383 24.652 0 34.036 4.692 4.692 10.855 7.037 17.018 7.037zm-6.411-30.465 23.429-23.429c1.768-1.768 4.089-2.651 6.41-2.651 2.322 0 4.643.884 6.411 2.651 3.535 3.534 3.535 9.287 0 12.821l-23.429 23.429c-3.535 3.536-9.286 3.534-12.821 0s-3.535-9.287 0-12.821z"/><path d="m98.41 379.555-23.429 23.429c-9.384 9.384-9.384 24.652 0 34.036 4.692 4.691 10.854 7.037 17.017 7.037s12.326-2.346 17.018-7.037l23.429-23.429c9.384-9.384 9.384-24.652 0-34.036-9.384-9.383-24.652-9.383-34.035 0zm23.428 23.428-23.428 23.429c-3.535 3.535-9.287 3.535-12.822 0-3.535-3.534-3.535-9.287 0-12.821l23.429-23.429c1.768-1.768 4.089-2.651 6.411-2.651s4.644.884 6.411 2.651c3.534 3.534 3.534 9.287-.001 12.821z"/><path d="m413.591 379.555c-9.386-9.383-24.652-9.382-34.036 0-9.383 9.384-9.383 24.652 0 34.036l23.429 23.429c4.692 4.691 10.855 7.037 17.018 7.037s12.326-2.346 17.018-7.037c9.383-9.384 9.383-24.652 0-34.036zm12.821 46.857c-3.535 3.534-9.286 3.536-12.821 0l-23.429-23.429c-3.535-3.534-3.535-9.287 0-12.821 1.768-1.768 4.089-2.651 6.411-2.651 2.321 0 4.643.884 6.41 2.651l23.429 23.429c3.535 3.534 3.535 9.287 0 12.821z"/><path d="m98.41 132.445c4.692 4.691 10.854 7.037 17.017 7.037s12.326-2.346 17.018-7.037c9.384-9.384 9.384-24.652 0-34.036l-23.429-23.429c-9.384-9.383-24.651-9.383-34.035 0-9.384 9.384-9.384 24.652 0 34.036zm-12.823-46.857c1.768-1.768 4.089-2.651 6.411-2.651s4.644.884 6.411 2.651l23.429 23.429c3.535 3.534 3.535 9.287 0 12.821-3.535 3.535-9.287 3.535-12.822 0l-23.429-23.429c-3.535-3.534-3.535-9.287 0-12.821z"/><path d="m172.995 75.211c1.196 2.889 3.989 4.632 6.932 4.632.957 0 1.929-.185 2.867-.573 3.827-1.585 5.644-5.972 4.059-9.799l-6.34-15.306c-1.585-3.827-5.973-5.642-9.799-4.059-3.827 1.585-5.644 5.972-4.059 9.799z"/><path d="m339.008 436.806c-1.585-3.827-5.972-5.645-9.799-4.059-3.827 1.585-5.645 5.972-4.059 9.799l6.34 15.306c1.196 2.889 3.988 4.632 6.932 4.632.956 0 1.929-.185 2.867-.573 3.827-1.585 5.645-5.972 4.059-9.799z"/><path d="m54.17 180.531 15.306 6.34c.938.39 1.911.573 2.867.573 2.943 0 5.736-1.744 6.932-4.632 1.585-3.827-.232-8.214-4.059-9.799l-15.306-6.34c-3.826-1.589-8.214.232-9.799 4.059-1.585 3.828.233 8.214 4.059 9.799z"/><path d="m457.856 331.509-15.306-6.34c-3.824-1.587-8.213.232-9.799 4.059s.231 8.214 4.058 9.799l15.306 6.34c.938.39 1.91.573 2.867.573 2.943 0 5.735-1.744 6.932-4.632 1.587-3.828-.23-8.214-4.058-9.799z"/><path d="m79.292 329.228c-1.586-3.827-5.973-5.643-9.799-4.059l-15.306 6.34c-3.827 1.585-5.644 5.972-4.059 9.799 1.196 2.889 3.989 4.632 6.932 4.632.957 0 1.929-.185 2.867-.573l15.306-6.34c3.827-1.586 5.644-5.972 4.059-9.799z"/><path d="m432.769 182.813c1.196 2.889 3.988 4.632 6.932 4.632.956 0 1.929-.185 2.867-.573l15.306-6.34c3.827-1.585 5.645-5.972 4.059-9.799-1.585-3.827-5.973-5.644-9.799-4.059l-15.306 6.34c-3.828 1.585-5.645 5.971-4.059 9.799z"/><path d="m182.834 432.747c-3.827-1.589-8.215.232-9.799 4.059l-6.34 15.306c-1.585 3.827.232 8.214 4.059 9.799.939.39 1.911.573 2.867.573 2.943 0 5.736-1.744 6.932-4.632l6.34-15.306c1.585-3.827-.232-8.214-4.059-9.799z"/><path d="m329.249 79.27c.939.39 1.91.573 2.867.573 2.943 0 5.735-1.744 6.932-4.632l6.34-15.306c1.586-3.827-.231-8.214-4.059-9.799-3.823-1.587-8.213.233-9.799 4.059l-6.34 15.306c-1.586 3.827.232 8.214 4.059 9.799z"/></g></g></svg>