<svg id="Capa_1" enable-background="new 0 0 512 512" height="512" viewBox="0 0 512 512" width="512" xmlns="http://www.w3.org/2000/svg"><g><g><g><path d="m412.24 131.75h-69.507c-2.9 0-5.362-2.08-5.897-4.931-10.155-54.171-57.967-95.069-115.225-94.463-63.744.676-114.711 53.371-114.711 117.118v9.409c0 3.314-2.686 6-6 6h-17.914c-41.107 0-75.179 32.879-75.484 73.984-.307 41.433 33.187 75.117 74.548 75.117h331.333c50.552 0 91.49-41.168 91.114-91.807-.372-50.241-42.016-90.427-92.257-90.427z" fill="#c8effe"/></g><g><g><path d="m412.24 131.75h-23c50.241 0 91.885 40.186 92.258 90.426.375 50.639-40.562 91.808-91.114 91.808h23c50.552 0 91.49-41.168 91.114-91.808-.373-50.24-42.017-90.426-92.258-90.426z" fill="#99e2fc"/></g><g><path d="m313.836 126.82c.534 2.851 2.996 4.931 5.897 4.931h23c-2.9 0-5.362-2.08-5.897-4.931-10.155-54.171-57.967-95.069-115.225-94.463-3.438.036-6.835.233-10.192.566 51.461 5.09 93.029 43.82 102.417 93.897z" fill="#99e2fc"/></g></g></g><g><path d="m413.383 124.25h-69.406c-5.271-26.621-19.277-50.899-39.89-68.921-22.481-19.655-51.326-30.479-81.221-30.479-68.079 0-123.466 55.387-123.466 123.467v9.066h-17.35c-45.242 0-82.05 36.808-82.05 82.05 0 45.243 36.808 82.051 82.05 82.051h29.551c4.142 0 7.5-3.357 7.5-7.5s-3.358-7.5-7.5-7.5h-29.551c-36.971 0-67.05-30.079-67.05-67.051s30.079-67.05 67.05-67.05h74.55c4.142 0 7.5-3.357 7.5-7.5s-3.358-7.5-7.5-7.5h-42.2v-9.066c0-59.809 48.658-108.467 108.467-108.467 53.604 0 99.744 39.937 107.351 92.907.733 5.083 1.116 10.277 1.116 15.56 0 10.554-1.511 20.981-4.491 30.995-1.182 3.971 1.079 8.146 5.049 9.328.714.212 1.434.313 2.142.313 3.232 0 6.216-2.106 7.186-5.362 3.394-11.403 5.114-23.271 5.114-35.274 0-3.049-.114-6.072-.333-9.066h67.383c46.106 0 83.617 37.51 83.617 83.616s-37.51 83.617-83.617 83.617h-271.784c-4.142 0-7.5 3.357-7.5 7.5s3.358 7.5 7.5 7.5h271.784c54.377 0 98.617-44.239 98.617-98.617-.001-54.377-44.24-98.617-98.618-98.617z"/><path d="m189.733 454.017h-132.533c-4.142 0-7.5-3.357-7.5-7.5s3.358-7.5 7.5-7.5h132.533c23.269 0 42.2-18.931 42.2-42.2s-18.931-42.2-42.2-42.2-42.2 18.931-42.2 42.2c0 4.143-3.358 7.5-7.5 7.5s-7.5-3.357-7.5-7.5c0-31.54 25.66-57.2 57.2-57.2s57.2 25.66 57.2 57.2-25.66 57.2-57.2 57.2z"/><path d="m189.733 420.883c-4.142 0-7.5-3.357-7.5-7.5s3.358-7.5 7.5-7.5c4.999 0 9.066-4.067 9.066-9.066s-4.067-9.066-9.066-9.066c-5 0-9.067 4.067-9.067 9.066 0 4.143-3.358 7.5-7.5 7.5s-7.5-3.357-7.5-7.5c0-13.271 10.796-24.066 24.067-24.066s24.066 10.796 24.066 24.066-10.795 24.066-24.066 24.066z"/><path d="m405.1 487.15h-132.533c-4.142 0-7.5-3.357-7.5-7.5s3.358-7.5 7.5-7.5h132.533c23.269 0 42.2-18.931 42.2-42.199 0-23.27-18.931-42.2-42.2-42.2s-42.2 18.931-42.2 42.2c0 4.143-3.358 7.5-7.5 7.5s-7.5-3.357-7.5-7.5c0-31.54 25.66-57.2 57.2-57.2s57.2 25.66 57.2 57.2-25.66 57.199-57.2 57.199z"/><path d="m405.1 454.017c-4.142 0-7.5-3.357-7.5-7.5s3.358-7.5 7.5-7.5c4.999 0 9.066-4.067 9.066-9.066 0-5-4.067-9.067-9.066-9.067-5 0-9.067 4.067-9.067 9.067 0 4.143-3.358 7.5-7.5 7.5s-7.5-3.357-7.5-7.5c0-13.271 10.796-24.067 24.067-24.067 13.27 0 24.066 10.797 24.066 24.067s-10.796 24.066-24.066 24.066z"/><path d="m338.833 371.183h-33.133c-4.142 0-7.5-3.357-7.5-7.5s3.358-7.5 7.5-7.5h33.133c4.142 0 7.5 3.357 7.5 7.5s-3.357 7.5-7.5 7.5z"/><path d="m106.9 387.75h-33.133c-4.142 0-7.5-3.357-7.5-7.5s3.358-7.5 7.5-7.5h33.133c4.142 0 7.5 3.357 7.5 7.5s-3.358 7.5-7.5 7.5z"/></g></g></svg>